HIERARCHY
ROOT Pelvis
{
	OFFSET 0.000000 0.000000 0.000000
	CHANNELS 6 Xposition Yposition Zposition Zrotation Yrotation Xrotation 
	JOINT Left_hip
	{
		OFFSET 0.076090 -0.089427 -0.010735
		CHANNELS 3 Zrotation Yrotation Xrotation
		JOINT Left_knee
		{
			OFFSET 0.030200 -0.359518 -0.003501
			CHANNELS 3 Zrotation Yrotation Xrotation
			JOINT Left_ankle
			{
				OFFSET -0.011005 -0.371022 -0.045888
				CHANNELS 3 Zrotation Yrotation Xrotation
				JOINT Left_foot
				{
					OFFSET 0.023930 -0.052103 0.111084
					CHANNELS 3 Zrotation Yrotation Xrotation
					End Site
					{
						OFFSET 0.000000 0.000000 0.000000
					}
				}
			}
		}
	}
	JOINT Right_hip
	{
		OFFSET -0.073836 -0.088112 -0.007709
		CHANNELS 3 Zrotation Yrotation Xrotation
		JOINT Right_knee
		{
			OFFSET -0.035715 -0.367809 -0.006536
			CHANNELS 3 Zrotation Yrotation Xrotation
			JOINT Right_ankle
			{
				OFFSET 0.013718 -0.371958 -0.043815
				CHANNELS 3 Zrotation Yrotation Xrotation
				JOINT Right_foot
				{
					OFFSET -0.021936 -0.046387 0.114542
					CHANNELS 3 Zrotation Yrotation Xrotation
					End Site
					{
						OFFSET 0.000000 0.000000 0.000000
					}
				}
			}
		}
	}
	JOINT Spine1
	{
		OFFSET -0.001865 0.102064 -0.019455
		CHANNELS 3 Zrotation Yrotation Xrotation
		JOINT Spine2
		{
			OFFSET 0.003082 0.129260 -0.001938
			CHANNELS 3 Zrotation Yrotation Xrotation
			JOINT Spine3
			{
				OFFSET 0.001104 0.048093 0.026561
				CHANNELS 3 Zrotation Yrotation Xrotation
				JOINT Neck
				{
					OFFSET -0.002010 0.204222 -0.047183
					CHANNELS 3 Zrotation Yrotation Xrotation
					JOINT Head
					{
						OFFSET 0.005050 0.063649 0.048489
						CHANNELS 3 Zrotation Yrotation Xrotation
						End Site
						{
							OFFSET 0.000000 0.000000 0.000000
						}
					}
				}
				JOINT Left_collar
				{
					OFFSET 0.072979 0.114065 -0.031633
					CHANNELS 3 Zrotation Yrotation Xrotation
					JOINT Left_shoulder
					{
						OFFSET 0.083419 0.032092 -0.006530
						CHANNELS 3 Zrotation Yrotation Xrotation
						JOINT Left_elbow
						{
							OFFSET 0.239393 -0.012014 -0.025060
							CHANNELS 3 Zrotation Yrotation Xrotation
							JOINT Left_wrist
							{
								OFFSET 0.227297 0.008116 0.000384
								CHANNELS 3 Zrotation Yrotation Xrotation
								JOINT Left_palm
								{
									OFFSET 0.074607 -0.009248 -0.012277
									CHANNELS 3 Zrotation Yrotation Xrotation
									End Site
									{
										OFFSET 0.000000 0.000000 0.000000
									}
								}
							}
						}
					}
				}
				JOINT Right_collar
				{
					OFFSET -0.074980 0.111880 -0.037894
					CHANNELS 3 Zrotation Yrotation Xrotation
					JOINT Right_shoulder
					{
						OFFSET -0.087565 0.034353 -0.009323
						CHANNELS 3 Zrotation Yrotation Xrotation
						JOINT Right_elbow
						{
							OFFSET -0.236838 -0.013719 -0.019794
							CHANNELS 3 Zrotation Yrotation Xrotation
							JOINT Right_wrist
							{
								OFFSET -0.235053 0.006433 -0.003853
								CHANNELS 3 Zrotation Yrotation Xrotation
								JOINT Right_palm
								{
									OFFSET -0.075499 -0.006894 -0.009792
									CHANNELS 3 Zrotation Yrotation Xrotation
									End Site
									{
										OFFSET 0.000000 0.000000 0.000000
									}
								}
							}
						}
					}
				}
			}
		}
	}
}
MOTION
Frames: 14
Frame Time: 0.100000
0.000000 0.000000 0.000000 165.549926 50.324481 -28.894720 2.356499 -3.217449 -4.141530 1.151967 -8.230349 17.699148 -4.522742 8.900495 -6.391057 5.518771 10.191982 -5.632883 2.193155 -2.006545 8.978903 1.463354 8.264211 4.334574 10.658142 -11.184160 -12.575945 -14.509566 12.497170 2.406459 3.548120 3.948035 9.513434 0.835096 -3.948953 1.010376 1.666346 1.914170 -0.812807 -3.995356 6.925384 -14.309826 -5.392772 -3.870849 8.726676 -7.262253 -35.304142 -9.222629 -29.181927 -38.404131 5.384758 17.680761 -46.357193 -1.271749 13.436434 -12.599990 12.846321 -7.332397 -2.285665 -4.015706 8.244461 35.112084 -6.294716 19.801353 30.031792 0.029147 -19.899294 39.797776 -11.552255 -16.003179 10.427726 9.874331 9.987719 5.987273 -5.614337 
0.006107 -0.003711 0.010169 165.599416 50.803758 -29.418910 1.146476 -3.879813 -3.318216 0.499585 -7.824743 22.071275 -2.021227 9.057585 -9.622325 3.018966 11.187299 -5.488232 1.727377 -2.589347 12.258414 2.238743 8.215159 -0.627118 11.537813 -10.572889 -10.545980 -14.855970 12.559138 2.413075 3.582027 4.682646 8.524198 0.989847 -3.978304 1.024697 1.613729 2.010694 -0.477240 -3.237633 7.547536 -12.452397 -5.711521 -2.226312 10.268876 -7.098493 -33.811139 -9.581098 -28.635484 -38.749840 4.078905 23.660447 -50.901915 -5.562454 15.847219 -14.035857 12.447677 -8.191419 -2.692566 -3.001985 8.082410 33.416539 -6.891206 18.861445 29.913157 -0.162797 -26.265985 46.376318 -14.881495 -19.451720 12.750152 11.390024 11.600456 6.731140 -5.515067 
0.002770 -0.004580 0.019495 165.401434 50.967402 -28.694195 0.464921 -2.326640 1.456673 -0.119332 -6.740787 16.866336 -1.377348 8.850092 -11.036064 2.389972 11.472436 -4.794988 1.279109 -2.924038 14.250674 3.037028 7.787702 -5.431942 11.947895 -9.872112 -9.064793 -14.457205 12.938840 3.229674 3.648448 4.259229 5.278166 1.048337 -3.636219 1.628050 1.376250 1.813099 -0.313329 -1.687886 6.879502 -9.790033 -5.971405 -1.972193 11.240690 -8.617338 -29.618284 -8.899654 -28.308786 -36.790875 3.355528 30.506989 -55.621050 -12.883735 15.315320 -13.639596 9.417983 -8.876669 -2.814551 -2.826565 8.846223 29.960733 -6.947674 18.928081 29.107914 0.531758 -30.706087 50.835601 -19.929436 -19.147786 12.317206 8.569504 12.529267 6.851558 -5.122388 
-0.004731 -0.007093 0.026549 165.676830 51.932012 -26.808715 0.433660 -1.553630 6.021967 0.246733 -7.125654 5.622449 -1.710972 8.764539 -9.343166 3.510226 11.082914 -3.689291 0.935650 -2.232765 13.865667 3.164114 6.618003 -6.921858 10.790119 -9.486635 -8.590329 -12.072881 11.457953 5.012726 2.534190 3.227863 2.550236 1.541732 -3.646556 2.810101 1.007581 0.991668 -0.997944 -0.314268 -0.483497 -8.781610 -5.750709 -9.981971 10.144971 -11.678769 -23.286549 -6.580326 -28.052355 -32.190374 3.980501 50.688787 -64.889754 -32.402077 16.687930 -13.964372 4.197178 -10.293454 -2.858846 -3.263461 11.760465 25.298744 -6.595101 20.263492 25.521671 2.798754 -53.538817 61.280898 -40.878944 -21.858522 13.790652 3.991782 13.826083 7.172239 -4.910474 
-0.009987 -0.009203 0.028561 167.304416 51.727489 -23.744693 0.884418 -0.521492 7.140500 -1.252360 -6.188433 0.409592 -3.753779 6.941652 -6.954422 5.762238 11.559377 -4.974940 -0.016723 -1.646899 12.441575 2.956235 5.906125 -7.292876 11.328240 -8.620092 -7.887610 -13.330054 9.463986 3.781793 2.272100 2.144295 1.533228 1.484059 -3.306617 3.904050 0.643717 0.103853 -0.716007 0.814378 -5.958828 -9.114680 -5.005130 -14.046946 7.196126 -14.031027 -13.554859 -4.233522 -31.588527 -23.467320 5.351304 104.119194 -70.908547 -80.064713 19.196936 -15.358613 0.662409 -11.596575 -2.933190 -4.141971 12.123519 18.089509 -6.891875 23.986658 20.589507 6.329450 -112.723706 67.403910 -92.791421 -24.232602 16.842437 2.681593 14.643702 7.297612 -4.069624 
-0.016219 -0.008539 0.027500 168.149738 50.180930 -21.609689 1.480863 0.418430 7.558918 -2.461921 -5.059505 -2.661082 -5.402773 6.637025 -5.968153 8.200598 11.215160 -5.632558 -0.560837 -1.066713 10.859905 3.182614 6.137441 -7.171397 11.787376 -7.507039 -7.547211 -14.311358 7.665269 3.043179 3.179959 1.113799 1.247670 1.674350 -2.734654 4.872808 0.598725 -0.216398 -0.325249 1.391983 -7.937291 -9.792316 -5.031303 -13.798357 5.070567 -16.547642 -5.369743 -2.297053 -35.760659 -14.267609 6.930116 135.665851 -67.211449 -108.389048 19.291159 -16.073452 -2.668848 -12.768790 -3.095454 -5.845478 12.578059 12.459988 -6.436960 24.290409 16.989584 7.584502 -143.827309 60.510602 -120.474795 -23.877720 18.159944 1.045015 15.089024 6.990842 -3.863729 
-0.020696 -0.007813 0.024602 167.841981 50.012686 -20.761894 1.360184 0.222958 7.270042 -2.397094 -4.526648 -4.064665 -5.785199 6.646208 -5.289820 9.062087 10.761837 -6.661145 -0.393414 -0.604817 9.706848 2.845295 5.844004 -6.998121 11.989162 -7.079957 -7.257400 -15.165280 5.692560 2.270914 3.681665 0.532200 1.342413 1.797903 -2.517214 4.749088 0.809458 -0.791293 0.340422 1.186997 -9.800271 -10.095556 -4.861580 -13.375213 3.543277 -17.826219 -0.292682 -1.032295 -41.960597 -9.631285 8.401199 144.000406 -65.880418 -113.959526 20.498563 -16.866244 -4.766841 -12.688530 -3.148857 -6.224770 12.348295 8.072866 -6.235474 26.075042 13.997813 8.288896 -151.841495 56.363818 -125.865353 -25.284096 19.826848 1.342382 14.941107 6.739931 -3.676306 
-0.024804 -0.007360 0.021946 167.858578 49.449316 -19.986719 1.447699 0.343517 7.155300 -2.789855 -3.882850 -5.122096 -5.620019 6.269633 -4.593866 8.997763 10.833371 -7.561616 -0.399923 -0.323266 8.622552 2.652224 5.649187 -6.469223 11.853441 -6.387291 -7.043016 -15.376973 4.346005 1.676538 4.081280 0.362109 1.207880 1.621620 -1.990498 4.776036 0.775750 -0.800913 0.579885 0.707566 -11.009286 -9.993096 -4.769641 -12.982168 2.928614 -18.606265 1.908657 -0.658318 -47.186472 -8.723080 9.482739 146.273552 -64.706304 -114.859657 21.388685 -16.223547 -7.401309 -12.639825 -3.121695 -5.740194 12.016984 6.206125 -5.685339 28.246811 12.867229 8.484918 -151.856217 54.635109 -125.142093 -26.013014 19.794493 0.607226 14.991216 6.645668 -3.727418 
-0.027149 -0.007035 0.019414 167.796377 49.070271 -19.593873 1.314718 0.174459 6.861379 -2.779587 -3.324680 -5.366579 -5.199374 6.054070 -4.370617 8.634958 11.014279 -7.935308 -0.421944 -0.204533 8.081963 2.538015 5.372843 -6.382690 11.814130 -5.834538 -6.710668 -15.450583 3.668029 1.356854 4.174655 0.356117 1.190010 1.481215 -1.812327 4.449667 0.803787 -0.784190 0.637038 0.307463 -11.030538 -9.910510 -4.925955 -12.406118 3.274041 -18.646055 1.899456 -0.680547 -50.431965 -9.718617 10.086509 144.653338 -64.283283 -112.535795 21.403644 -15.797911 -8.697512 -12.247036 -2.978225 -4.812355 11.732766 6.147504 -5.462751 30.229455 13.504960 8.764617 -151.059854 54.737029 -123.370276 -25.663512 19.790098 1.172743 14.649393 6.563080 -3.456546 
-0.028790 -0.006617 0.017484 167.674309 48.725422 -19.287807 1.366517 0.135277 6.608139 -2.901975 -2.919480 -5.673221 -5.010866 5.810654 -4.243850 8.457424 11.385115 -8.057828 -0.396008 -0.004837 7.509239 2.508386 5.164147 -6.232876 11.723417 -5.510639 -6.585258 -15.311988 3.505387 1.296577 4.133747 0.324696 1.001536 1.481158 -1.644408 4.185167 0.838062 -0.721585 0.482775 0.265202 -10.635260 -9.923275 -5.291985 -12.243086 3.970342 -18.553560 1.573334 -0.854336 -51.589878 -10.839060 10.425661 144.776711 -63.860397 -112.058486 19.868455 -15.799428 -8.643832 -11.740192 -2.756556 -4.380909 11.786446 6.627109 -5.354500 31.431309 14.458161 9.326571 -150.519522 55.441275 -122.525482 -24.396728 19.500486 1.092327 14.241601 6.367193 -3.168688 
-0.029776 -0.006018 0.015806 167.622170 48.275166 -18.579572 1.429068 -0.040501 5.928929 -3.036837 -2.386441 -5.952154 -4.923916 5.802904 -4.199458 8.580863 11.237002 -8.044169 -0.328450 0.192606 6.490967 2.453891 4.990685 -6.044391 11.800689 -5.168542 -6.541053 -15.473601 3.347896 1.315018 3.979122 0.308697 0.612909 1.581788 -1.441910 3.731052 0.924479 -0.680088 0.378343 0.284367 -10.317574 -10.199705 -5.468290 -12.080506 4.539319 -18.588513 1.911940 -0.898189 -52.744940 -11.037365 11.149078 146.824328 -63.105186 -113.780685 19.422213 -15.765242 -9.549973 -11.562179 -2.635560 -3.910722 12.067403 6.503564 -5.235438 32.240239 15.005156 9.985703 -151.177369 56.025522 -122.780176 -23.351667 19.452362 1.106878 13.840830 6.209629 -2.899366 
-0.030847 -0.005443 0.014034 167.546648 48.168372 -18.006080 1.536719 -0.109280 5.344840 -3.301860 -2.143822 -6.243187 -4.968143 5.636389 -4.088788 8.732786 11.201636 -8.022180 -0.546892 0.228471 5.898012 2.650614 4.897214 -6.371158 12.040184 -4.973851 -6.285753 -15.780607 3.305792 1.365322 3.906296 0.297639 0.369452 1.578862 -1.384265 3.562470 0.930462 -0.711674 0.236264 0.375430 -10.294887 -10.685488 -5.390524 -12.053049 4.248340 -18.868886 2.273248 -0.854078 -53.099077 -10.736520 11.495935 148.012957 -63.004641 -114.851683 18.903202 -15.845294 -9.665799 -11.716896 -2.675026 -4.044098 12.288433 6.189323 -5.108599 32.294796 14.890689 10.209195 -151.719858 56.109103 -123.345913 -22.753240 19.422216 0.941412 13.889049 6.199481 -2.935305 
-0.031598 -0.005091 0.012149 167.434885 48.117530 -17.831348 1.552735 -0.111569 5.133140 -3.391056 -2.094624 -6.469739 -5.068682 5.613998 -3.964110 8.851690 11.106807 -8.033883 -0.518971 0.353347 5.354887 2.578808 4.858706 -6.002309 12.052347 -5.039048 -6.402746 -15.883295 3.273349 1.361756 3.924361 0.228365 0.460913 1.557128 -1.321850 3.542078 0.920032 -0.722412 0.215049 0.449922 -10.325961 -11.049583 -5.252677 -12.049509 3.917721 -19.024182 2.457533 -0.795003 -53.113227 -10.394088 11.577376 148.324515 -63.136870 -115.185109 18.494399 -15.976004 -9.766273 -11.671016 -2.661531 -4.128988 12.300441 6.013660 -5.043086 32.090898 14.634619 10.113235 -151.496084 56.171684 -123.217226 -22.346713 19.413648 0.877031 13.758013 6.132340 -2.907543 
-0.032087 -0.004819 0.010974 167.333277 48.097365 -17.807611 1.539160 -0.183135 4.990175 -3.396698 -2.063602 -6.456200 -5.080887 5.667696 -4.023871 8.916829 10.998964 -7.895375 -0.443138 0.435643 5.138676 2.484779 4.785170 -5.867955 12.010879 -5.118965 -6.436168 -15.856864 3.243915 1.413850 3.814753 0.218353 0.577503 1.607264 -1.334711 3.604942 0.932681 -0.726695 0.219920 0.482178 -10.286452 -11.138200 -5.203957 -12.208485 3.827758 -18.938954 2.536905 -0.724969 -52.852873 -10.177432 11.596970 149.003979 -63.276317 -115.855209 17.526351 -16.078432 -9.847693 -11.539560 -2.603629 -4.128123 12.370954 5.939439 -5.042021 32.058664 14.563911 10.068401 -151.308770 56.289016 -122.996002 -21.436618 19.309893 0.924220 13.581187 6.077641 -2.825333 
